# xmcd
#
# Track frame offsets:
#	183
#	12558
#	24520
#	39430
#	55418
#	73320
#	90830
#	103498
#	119320
#	131565
#
# Disc length: 1964 seconds
#
# Revision: 5
# Processed by: cddbd v1.5.2PL0 Copyright (c) Steve Scherf et al.
# Submitted via: audiograbber 1.83.01
#
DISCID=8907aa0a
DTITLE=The McCarters - The Gift
DYEAR=1988
DGENRE=Country
TTITLE0=I Give You Music
TTITLE1=Timeless And True Love
TTITLE2=Flowers In The Desert
TTITLE3=Where Would That Leave Me
TTITLE4=I Know Love
TTITLE5=The Gift
TTITLE6=Loving You
TTITLE7=My Songbird
TTITLE8=A Quiet Desperation
TTITLE9=Letter From Home
EXTD=Warner Bros. 25737
EXTT0=
EXTT1=
EXTT2=
EXTT3=
EXTT4=
EXTT5=
EXTT6=
EXTT7=
EXTT8=
EXTT9=
PLAYORDER=
